<svg width="24" height="24" viewBox="0 0 24 24" fill="currentColor" xmlns="http://www.w3.org/2000/svg">
<path d="M20.52 3.48C18.24 1.2 15.24 0 12 0C5.4 0 0 5.4 0 12C0 14.28 0.6 16.44 1.8 18.36L0 24L5.88 22.26C7.8 23.4 9.96 24 12 24C18.6 24 24 18.6 24 12C24 8.76 22.8 5.76 20.52 3.48ZM12 21.6C10.32 21.6 8.76 21.18 7.32 20.34L6.96 20.16L3.72 21.12L4.68 17.94L4.44 17.52C3.36 15.84 2.76 13.98 2.76 12C2.76 6.96 6.96 2.76 12 2.76C16.98 2.76 21.24 6.96 21.24 12C21.24 17.04 16.98 21.6 12 21.6ZM17.04 14.28C16.8 13.92 15.48 13.2 15.24 13.08C15 12.96 14.88 12.96 14.64 13.2C14.4 13.44 13.8 14.04 13.68 14.16C13.56 14.28 13.44 14.4 13.2 14.28C12.96 14.16 11.88 13.8 10.74 12.84C9.84 12.12 9.12 11.22 8.88 10.98C8.76 10.74 8.88 10.62 9 10.5C9.12 10.38 9.36 10.08 9.48 9.96C9.6 9.84 9.6 9.72 9.6 9.48C9.6 9.24 9 7.92 8.7 7.32C8.52 6.96 8.28 6.96 8.04 6.96C7.92 6.96 7.8 6.96 7.56 6.96C7.32 6.96 7.08 7.08 6.84 7.32C6.6 7.56 5.88 8.28 5.88 9.72C5.88 11.16 6.96 12.54 7.2 12.9C7.44 13.26 9.48 16.08 12.54 17.52C14.58 18.48 15.48 18.78 16.08 18.96C16.8 19.2 17.46 19.2 17.94 19.08C18.42 18.96 19.68 18.24 19.92 17.52C20.16 16.8 20.16 16.2 20.1 16.08C19.92 15.96 19.32 15.72 17.04 14.28Z"></path>
</svg>
